<svg width="49" height="49" viewBox="0 0 49 49" fill="none" xmlns="http://www.w3.org/2000/svg">
<path d="M32.2036 42.2964V38.2964C32.2036 36.1747 31.3607 34.1398 29.8604 32.6395C28.3601 31.1392 26.3253 30.2964 24.2036 30.2964H12.2036C10.0818 30.2964 8.04699 31.1392 6.5467 32.6395C5.04641 34.1398 4.20355 36.1747 4.20355 38.2964V42.2964" stroke="black" stroke-width="4" stroke-linecap="round" stroke-linejoin="round"/>
<path d="M18.2036 22.2964C22.6218 22.2964 26.2036 18.7147 26.2036 14.2964C26.2036 9.87811 22.6218 6.29639 18.2036 6.29639C13.7853 6.29639 10.2036 9.87811 10.2036 14.2964C10.2036 18.7147 13.7853 22.2964 18.2036 22.2964Z" stroke="black" stroke-width="4" stroke-linecap="round" stroke-linejoin="round"/>
<path d="M44.2036 42.2964V38.2964C44.2022 36.5239 43.6123 34.8019 42.5263 33.401C41.4403 32.0001 39.9198 30.9995 38.2036 30.5564" stroke="black" stroke-width="4" stroke-linecap="round" stroke-linejoin="round"/>
<path d="M32.2036 6.5564C33.9244 6.997 35.4496 7.9978 36.5388 9.40102C37.628 10.8042 38.2192 12.5301 38.2192 14.3064C38.2192 16.0827 37.628 17.8086 36.5388 19.2118C35.4496 20.615 33.9244 21.6158 32.2036 22.0564" stroke="black" stroke-width="4" stroke-linecap="round" stroke-linejoin="round"/>
</svg>
