<svg width="17" height="17" viewBox="0 0 17 17" fill="none" xmlns="http://www.w3.org/2000/svg">
<g clip-path="url(#clip0_2003_11)">
<path d="M14.8702 11.5765V13.5765C14.871 13.7621 14.8329 13.9459 14.7585 14.116C14.6842 14.2861 14.5751 14.4389 14.4383 14.5644C14.3014 14.6899 14.1399 14.7855 13.964 14.8449C13.7882 14.9044 13.6018 14.9265 13.4169 14.9098C11.3654 14.6869 9.39487 13.9859 7.66354 12.8631C6.05275 11.8396 4.68709 10.4739 3.66354 8.86313C2.53685 7.12393 1.8357 5.14379 1.61687 3.08313C1.60021 2.89877 1.62212 2.71297 1.6812 2.53754C1.74029 2.36212 1.83525 2.20092 1.96005 2.06421C2.08484 1.9275 2.23674 1.81827 2.40606 1.74348C2.57539 1.66868 2.75843 1.62997 2.94354 1.62979H4.94354C5.26707 1.62661 5.58073 1.74118 5.82604 1.95215C6.07136 2.16312 6.23159 2.45609 6.27687 2.77646C6.36128 3.41651 6.51784 4.04495 6.74354 4.64979C6.83323 4.88841 6.85264 5.14774 6.79947 5.39705C6.7463 5.64636 6.62278 5.8752 6.44354 6.05646L5.59687 6.90313C6.54591 8.57216 7.92784 9.95409 9.59687 10.9031L10.4435 10.0565C10.6248 9.87722 10.8536 9.75369 11.1029 9.70052C11.3523 9.64735 11.6116 9.66677 11.8502 9.75646C12.4551 9.98216 13.0835 10.1387 13.7235 10.2231C14.0474 10.2688 14.3431 10.4319 14.5546 10.6815C14.766 10.931 14.8783 11.2495 14.8702 11.5765Z" stroke="black" stroke-width="1.33333" stroke-linecap="round" stroke-linejoin="round"/>
</g>
<defs>
<clipPath id="clip0_2003_11">
<rect width="16" height="16" fill="white" transform="translate(0.203537 0.296448)"/>
</clipPath>
</defs>
</svg>
