<svg width="21" height="21" viewBox="0 0 21 21" fill="none" xmlns="http://www.w3.org/2000/svg">
<path d="M18.5368 14.3963V16.8963C18.5378 17.1284 18.4902 17.3581 18.3972 17.5708C18.3043 17.7834 18.1679 17.9743 17.9969 18.1312C17.8259 18.2881 17.624 18.4075 17.4041 18.4819C17.1842 18.5562 16.9513 18.5839 16.7201 18.563C14.1558 18.2843 11.6926 17.4081 9.52848 16.0046C7.515 14.7252 5.80792 13.0181 4.52848 11.0046C3.12012 8.83064 2.24368 6.35547 1.97014 3.77964C1.94932 3.54919 1.97671 3.31694 2.05056 3.09766C2.12441 2.87838 2.24312 2.67688 2.39911 2.50599C2.55511 2.3351 2.74498 2.19856 2.95664 2.10507C3.16829 2.01158 3.39709 1.96319 3.62848 1.96297H6.12848C6.5329 1.95899 6.92497 2.1022 7.23161 2.36592C7.53825 2.62963 7.73854 2.99584 7.79514 3.3963C7.90066 4.19636 8.09635 4.98191 8.37848 5.73797C8.4906 6.03624 8.51486 6.3604 8.4484 6.67204C8.38194 6.98368 8.22753 7.26973 8.00348 7.4963L6.94514 8.55464C8.13144 10.6409 9.85885 12.3683 11.9451 13.5546L13.0035 12.4963C13.2301 12.2723 13.5161 12.1178 13.8277 12.0514C14.1394 11.9849 14.4635 12.0092 14.7618 12.1213C15.5179 12.4034 16.3034 12.5991 17.1035 12.7046C17.5083 12.7617 17.878 12.9656 18.1423 13.2776C18.4065 13.5895 18.5469 13.9876 18.5368 14.3963Z" stroke="black" stroke-width="1.66667" stroke-linecap="round" stroke-linejoin="round"/>
</svg>
