<svg width="21" height="21" viewBox="0 0 21 21" fill="none" xmlns="http://www.w3.org/2000/svg">
<g clip-path="url(#clip0_2003_47)">
<path d="M19.3025 14.3963V16.8963C19.3034 17.1284 19.2559 17.3581 19.1629 17.5708C19.0699 17.7834 18.9336 17.9743 18.7626 18.1312C18.5915 18.2881 18.3896 18.4075 18.1698 18.4819C17.9499 18.5562 17.717 18.5839 17.4858 18.563C14.9215 18.2843 12.4583 17.4081 10.2942 16.0046C8.28069 14.7252 6.57361 13.0181 5.29416 11.0046C3.88581 8.83064 3.00936 6.35547 2.73583 3.77964C2.715 3.54919 2.74239 3.31694 2.81625 3.09766C2.8901 2.87838 3.0088 2.67688 3.1648 2.50599C3.3208 2.3351 3.51067 2.19856 3.72232 2.10507C3.93398 2.01158 4.16278 1.96319 4.39416 1.96297H6.89416C7.29858 1.95899 7.69066 2.1022 7.9973 2.36592C8.30394 2.62963 8.50423 2.99584 8.56083 3.3963C8.66635 4.19636 8.86204 4.98191 9.14416 5.73797C9.25628 6.03624 9.28055 6.3604 9.21408 6.67204C9.14762 6.98368 8.99321 7.26973 8.76916 7.4963L7.71083 8.55464C8.89713 10.6409 10.6245 12.3683 12.7108 13.5546L13.7692 12.4963C13.9957 12.2723 14.2818 12.1178 14.5934 12.0514C14.9051 11.9849 15.2292 12.0092 15.5275 12.1213C16.2836 12.4034 17.0691 12.5991 17.8692 12.7046C18.274 12.7617 18.6437 12.9656 18.9079 13.2776C19.1722 13.5895 19.3126 13.9876 19.3025 14.3963Z" stroke="black" stroke-width="1.66667" stroke-linecap="round" stroke-linejoin="round"/>
</g>
<defs>
<clipPath id="clip0_2003_47">
<rect width="20" height="20" fill="white" transform="translate(0.969177 0.296387)"/>
</clipPath>
</defs>
</svg>
