<svg width="17" height="17" viewBox="0 0 17 17" fill="none" xmlns="http://www.w3.org/2000/svg">
<g clip-path="url(#clip0_2003_260)">
<path d="M10.8125 14.2964V12.9631C10.8125 12.2558 10.5315 11.5775 10.0314 11.0774C9.53131 10.5773 8.85304 10.2964 8.14579 10.2964H4.14579C3.43855 10.2964 2.76027 10.5773 2.26017 11.0774C1.76008 11.5775 1.47913 12.2558 1.47913 12.9631V14.2964" stroke="black" stroke-width="1.33333" stroke-linecap="round" stroke-linejoin="round"/>
<path d="M6.14579 7.62972C7.61855 7.62972 8.81246 6.43581 8.81246 4.96305C8.81246 3.49029 7.61855 2.29639 6.14579 2.29639C4.67303 2.29639 3.47913 3.49029 3.47913 4.96305C3.47913 6.43581 4.67303 7.62972 6.14579 7.62972Z" stroke="black" stroke-width="1.33333" stroke-linecap="round" stroke-linejoin="round"/>
<path d="M14.8124 14.2964V12.9631C14.8119 12.3722 14.6153 11.7982 14.2533 11.3313C13.8913 10.8643 13.3845 10.5308 12.8124 10.3831" stroke="black" stroke-width="1.33333" stroke-linecap="round" stroke-linejoin="round"/>
<path d="M10.8124 2.38306C11.386 2.52992 11.8944 2.86352 12.2575 3.33126C12.6205 3.799 12.8176 4.37428 12.8176 4.96639C12.8176 5.5585 12.6205 6.13378 12.2575 6.60152C11.8944 7.06926 11.386 7.40286 10.8124 7.54972" stroke="black" stroke-width="1.33333" stroke-linecap="round" stroke-linejoin="round"/>
</g>
<defs>
<clipPath id="clip0_2003_260">
<rect width="16" height="16" fill="white" transform="translate(0.145752 0.296387)"/>
</clipPath>
</defs>
</svg>
