<svg width="49" height="49" viewBox="0 0 49 49" fill="none" xmlns="http://www.w3.org/2000/svg">
<path d="M40.2036 26.2964C40.2036 36.2964 33.2036 41.2964 24.8836 44.1964C24.4479 44.3441 23.9746 44.337 23.5436 44.1764C15.2036 41.2964 8.20355 36.2964 8.20355 26.2964V12.2964C8.20355 11.766 8.41427 11.2573 8.78934 10.8822C9.16441 10.5071 9.67312 10.2964 10.2036 10.2964C14.2036 10.2964 19.2036 7.89643 22.6836 4.85643C23.1073 4.49443 23.6463 4.29553 24.2036 4.29553C24.7608 4.29553 25.2998 4.49443 25.7236 4.85643C29.2236 7.91643 34.2036 10.2964 38.2036 10.2964C38.734 10.2964 39.2427 10.5071 39.6178 10.8822C39.9928 11.2573 40.2036 11.766 40.2036 12.2964V26.2964Z" stroke="black" stroke-width="4" stroke-linecap="round" stroke-linejoin="round"/>
</svg>
