<svg width="49" height="48" viewBox="0 0 49 48" fill="none" xmlns="http://www.w3.org/2000/svg">
<path d="M31.454 25.78L34.484 42.832C34.5179 43.0328 34.4898 43.2392 34.4032 43.4235C34.3167 43.6079 34.176 43.7614 33.9999 43.8636C33.8237 43.9658 33.6206 44.0118 33.4176 43.9954C33.2146 43.9791 33.0215 43.9011 32.864 43.772L25.704 38.398C25.3583 38.1398 24.9384 38.0003 24.507 38.0003C24.0755 38.0003 23.6556 38.1398 23.31 38.398L16.138 43.77C15.9806 43.8989 15.7877 43.9767 15.585 43.9931C15.3822 44.0095 15.1793 43.9637 15.0033 43.8618C14.8273 43.7598 14.6865 43.6067 14.5998 43.4227C14.5131 43.2387 14.4846 43.0327 14.518 42.832L17.546 25.78" stroke="black" stroke-width="4" stroke-linecap="round" stroke-linejoin="round"/>
<path d="M24.5 28C31.1274 28 36.5 22.6274 36.5 16C36.5 9.37258 31.1274 4 24.5 4C17.8726 4 12.5 9.37258 12.5 16C12.5 22.6274 17.8726 28 24.5 28Z" stroke="black" stroke-width="4" stroke-linecap="round" stroke-linejoin="round"/>
</svg>
