<svg width="17" height="17" viewBox="0 0 17 17" fill="none" xmlns="http://www.w3.org/2000/svg">
<g clip-path="url(#clip0_2003_156)">
<path d="M7.88687 1.82648C7.91608 1.76745 7.96121 1.71777 8.01717 1.68303C8.07312 1.64829 8.13767 1.62988 8.20353 1.62988C8.26939 1.62988 8.33394 1.64829 8.3899 1.68303C8.44585 1.71777 8.49099 1.76745 8.5202 1.82648L10.0602 4.94581C10.1617 5.15112 10.3114 5.32875 10.4966 5.46345C10.6818 5.59814 10.897 5.68589 11.1235 5.71915L14.5675 6.22315C14.6328 6.2326 14.6941 6.26013 14.7445 6.30261C14.795 6.3451 14.8325 6.40084 14.8529 6.46355C14.8733 6.52626 14.8757 6.59342 14.8599 6.65744C14.8441 6.72146 14.8107 6.77978 14.7635 6.82581L12.2729 9.25115C12.1086 9.41121 11.9857 9.6088 11.9148 9.8269C11.8438 10.045 11.8269 10.2771 11.8655 10.5031L12.4535 13.9298C12.4651 13.995 12.458 14.0622 12.4332 14.1236C12.4084 14.185 12.3668 14.2382 12.3132 14.2771C12.2596 14.3161 12.1962 14.3391 12.1301 14.3437C12.064 14.3483 11.998 14.3343 11.9395 14.3031L8.86087 12.6845C8.65801 12.578 8.43232 12.5223 8.2032 12.5223C7.97408 12.5223 7.74839 12.578 7.54553 12.6845L4.46753 14.3031C4.40909 14.3341 4.34313 14.348 4.27717 14.3433C4.2112 14.3386 4.14788 14.3155 4.0944 14.2766C4.04092 14.2377 3.99942 14.1846 3.97464 14.1233C3.94985 14.062 3.94277 13.9949 3.9542 13.9298L4.54153 10.5038C4.58033 10.2776 4.56352 10.0454 4.49256 9.82718C4.4216 9.60894 4.29861 9.41125 4.1342 9.25115L1.64353 6.82648C1.59593 6.7805 1.5622 6.72208 1.54618 6.65786C1.53015 6.59365 1.53249 6.52622 1.55292 6.46327C1.57335 6.40032 1.61105 6.34437 1.66172 6.3018C1.71239 6.25923 1.774 6.23174 1.83953 6.22248L5.28287 5.71915C5.50971 5.68614 5.72513 5.59852 5.91059 5.4638C6.09605 5.32909 6.246 5.15133 6.34753 4.94581L7.88687 1.82648Z" stroke="black" stroke-width="1.33333" stroke-linecap="round" stroke-linejoin="round"/>
</g>
<defs>
<clipPath id="clip0_2003_156">
<rect width="16" height="16" fill="white" transform="translate(0.203537 0.296387)"/>
</clipPath>
</defs>
</svg>
