<svg width="19" height="20" viewBox="0 0 19 20" fill="none" xmlns="http://www.w3.org/2000/svg">
<path d="M15.0912 8.49106C15.0912 12.2586 10.9117 16.1823 9.50827 17.3941C9.37752 17.4924 9.21836 17.5456 9.05478 17.5456C8.89119 17.5456 8.73203 17.4924 8.60129 17.3941C7.19781 16.1823 3.01831 12.2586 3.01831 8.49106C3.01831 6.89009 3.65429 5.35469 4.78635 4.22263C5.91841 3.09057 7.45381 2.45459 9.05478 2.45459C10.6557 2.45459 12.1911 3.09057 13.3232 4.22263C14.4553 5.35469 15.0912 6.89009 15.0912 8.49106Z" stroke="black" stroke-width="1.50912" stroke-linecap="round" stroke-linejoin="round"/>
<path d="M9.05469 10.7544C10.3049 10.7544 11.3184 9.74092 11.3184 8.49073C11.3184 7.24053 10.3049 6.22705 9.05469 6.22705C7.8045 6.22705 6.79102 7.24053 6.79102 8.49073C6.79102 9.74092 7.8045 10.7544 9.05469 10.7544Z" stroke="black" stroke-width="1.50912" stroke-linecap="round" stroke-linejoin="round"/>
</svg>
