<svg width="17" height="16" viewBox="0 0 17 16" fill="none" xmlns="http://www.w3.org/2000/svg">
<g clip-path="url(#clip0_2003_617)">
<path d="M11.6085 14V12.6667C11.6085 11.9594 11.3275 11.2811 10.8274 10.781C10.3273 10.281 9.64906 10 8.94181 10H4.94181C4.23457 10 3.55629 10.281 3.0562 10.781C2.5561 11.2811 2.27515 11.9594 2.27515 12.6667V14" stroke="black" stroke-width="1.33333" stroke-linecap="round" stroke-linejoin="round"/>
<path d="M6.94181 7.33333C8.41457 7.33333 9.60848 6.13943 9.60848 4.66667C9.60848 3.19391 8.41457 2 6.94181 2C5.46905 2 4.27515 3.19391 4.27515 4.66667C4.27515 6.13943 5.46905 7.33333 6.94181 7.33333Z" stroke="black" stroke-width="1.33333" stroke-linecap="round" stroke-linejoin="round"/>
<path d="M15.6086 14V12.6667C15.6082 12.0758 15.4115 11.5019 15.0496 11.0349C14.6876 10.5679 14.1807 10.2344 13.6086 10.0867" stroke="black" stroke-width="1.33333" stroke-linecap="round" stroke-linejoin="round"/>
<path d="M11.6086 2.08667C12.1823 2.23354 12.6907 2.56714 13.0537 3.03488C13.4168 3.50262 13.6139 4.07789 13.6139 4.67C13.6139 5.26212 13.4168 5.83739 13.0537 6.30513C12.6907 6.77287 12.1823 7.10647 11.6086 7.25334" stroke="black" stroke-width="1.33333" stroke-linecap="round" stroke-linejoin="round"/>
</g>
<defs>
<clipPath id="clip0_2003_617">
<rect width="16" height="16" fill="white" transform="translate(0.941895)"/>
</clipPath>
</defs>
</svg>
