<svg width="17" height="21" viewBox="0 0 17 21" fill="none" xmlns="http://www.w3.org/2000/svg">
<path d="M14.1535 8.90186C14.1535 12.3833 10.2901 16.0091 8.99273 17.1289C8.87187 17.2198 8.72475 17.2689 8.57353 17.2689C8.42231 17.2689 8.27519 17.2198 8.15433 17.1289C6.85698 16.0091 2.99353 12.3833 2.99353 8.90186C2.99353 7.42245 3.58142 6.00363 4.62787 4.95753C5.67433 3.91143 7.09362 3.32373 8.57353 3.32373C10.0534 3.32373 11.4727 3.91143 12.5192 4.95753C13.5656 6.00363 14.1535 7.42245 14.1535 8.90186Z" stroke="black" stroke-width="1.39453" stroke-linecap="round" stroke-linejoin="round"/>
<path d="M8.57346 10.9937C9.72911 10.9937 10.666 10.0571 10.666 8.90186C10.666 7.74659 9.72911 6.81006 8.57346 6.81006C7.4178 6.81006 6.48096 7.74659 6.48096 8.90186C6.48096 10.0571 7.4178 10.9937 8.57346 10.9937Z" stroke="black" stroke-width="1.39453" stroke-linecap="round" stroke-linejoin="round"/>
</svg>
