<svg width="49" height="49" viewBox="0 0 49 49" fill="none" xmlns="http://www.w3.org/2000/svg">
<path d="M31.1575 26.0764L34.1875 43.1284C34.2214 43.3292 34.1932 43.5356 34.1067 43.7199C34.0202 43.9043 33.8795 44.0578 33.7033 44.16C33.5272 44.2622 33.3241 44.3082 33.1211 44.2918C32.9181 44.2755 32.725 44.1975 32.5675 44.0684L25.4075 38.6944C25.0618 38.4362 24.6419 38.2967 24.2105 38.2967C23.779 38.2967 23.3591 38.4362 23.0135 38.6944L15.8415 44.0664C15.6841 44.1953 15.4912 44.2731 15.2885 44.2895C15.0857 44.3059 14.8828 44.2601 14.7068 44.1582C14.5308 44.0562 14.39 43.9031 14.3033 43.7191C14.2166 43.5351 14.1881 43.329 14.2215 43.1284L17.2495 26.0764" stroke="black" stroke-width="4" stroke-linecap="round" stroke-linejoin="round"/>
<path d="M24.2035 28.2964C30.8309 28.2964 36.2035 22.9238 36.2035 16.2964C36.2035 9.66897 30.8309 4.29639 24.2035 4.29639C17.5761 4.29639 12.2035 9.66897 12.2035 16.2964C12.2035 22.9238 17.5761 28.2964 24.2035 28.2964Z" stroke="black" stroke-width="4" stroke-linecap="round" stroke-linejoin="round"/>
</svg>
