<svg width="21" height="21" viewBox="0 0 21 21" fill="none" xmlns="http://www.w3.org/2000/svg">
<path d="M14.3702 1.96289H6.03688C3.73569 1.96289 1.87021 3.82837 1.87021 6.12956V14.4629C1.87021 16.7641 3.73569 18.6296 6.03688 18.6296H14.3702C16.6714 18.6296 18.5369 16.7641 18.5369 14.4629V6.12956C18.5369 3.82837 16.6714 1.96289 14.3702 1.96289Z" stroke="black" stroke-width="1.66667" stroke-linecap="round" stroke-linejoin="round"/>
<path d="M13.5369 9.77115C13.6397 10.4647 13.5212 11.173 13.1983 11.7953C12.8754 12.4177 12.3645 12.9223 11.7382 13.2375C11.112 13.5528 10.4022 13.6625 9.71002 13.5511C9.0178 13.4397 8.37833 13.1129 7.88256 12.6171C7.3868 12.1213 7.05998 11.4819 6.94859 10.7897C6.8372 10.0974 6.94692 9.38773 7.26214 8.76146C7.57735 8.13519 8.08202 7.62427 8.70435 7.30135C9.32668 6.97843 10.035 6.85997 10.7285 6.96282C11.436 7.06772 12.0909 7.39737 12.5966 7.90307C13.1023 8.40877 13.432 9.06371 13.5369 9.77115Z" stroke="black" stroke-width="1.66667" stroke-linecap="round" stroke-linejoin="round"/>
<path d="M14.7869 5.71289H14.7952" stroke="black" stroke-width="1.66667" stroke-linecap="round" stroke-linejoin="round"/>
</svg>
