<svg width="21" height="21" viewBox="0 0 21 21" fill="none" xmlns="http://www.w3.org/2000/svg">
<path d="M10.1481 2.20888C10.1846 2.1351 10.241 2.07299 10.311 2.02957C10.3809 1.98614 10.4616 1.96313 10.5439 1.96313C10.6263 1.96313 10.707 1.98614 10.7769 2.02957C10.8468 2.07299 10.9033 2.1351 10.9398 2.20888L12.8648 6.10805C12.9916 6.36469 13.1788 6.58672 13.4103 6.75509C13.6418 6.92346 13.9107 7.03314 14.1939 7.07471L18.4989 7.70471C18.5805 7.71653 18.6571 7.75094 18.7202 7.80405C18.7832 7.85715 18.8301 7.92684 18.8556 8.00522C18.8811 8.0836 18.8842 8.16755 18.8644 8.24758C18.8447 8.3276 18.803 8.40051 18.7439 8.45805L15.6306 11.4897C15.4253 11.6898 15.2717 11.9368 15.183 12.2094C15.0943 12.482 15.0732 12.7721 15.1214 13.0547L15.8564 17.338C15.8708 17.4196 15.862 17.5035 15.831 17.5803C15.8 17.657 15.748 17.7236 15.6811 17.7722C15.6141 17.8209 15.5348 17.8497 15.4522 17.8555C15.3696 17.8612 15.287 17.8436 15.2139 17.8047L11.3656 15.7814C11.112 15.6482 10.8299 15.5787 10.5435 15.5787C10.2571 15.5787 9.97501 15.6482 9.72144 15.7814L5.87394 17.8047C5.80088 17.8434 5.71844 17.8608 5.63598 17.8549C5.55353 17.8491 5.47437 17.8202 5.40752 17.7716C5.34067 17.7229 5.2888 17.6565 5.25782 17.5799C5.22684 17.5033 5.21799 17.4195 5.23227 17.338L5.96644 13.0555C6.01494 12.7728 5.99393 12.4825 5.90522 12.2098C5.81652 11.937 5.66278 11.6898 5.45727 11.4897L2.34394 8.45888C2.28443 8.40141 2.24227 8.32838 2.22224 8.24811C2.20222 8.16784 2.20514 8.08356 2.23067 8.00487C2.25621 7.92618 2.30333 7.85625 2.36667 7.80303C2.43001 7.74982 2.50703 7.71546 2.58894 7.70388L6.89311 7.07471C7.17665 7.03346 7.44593 6.92393 7.67776 6.75554C7.90959 6.58714 8.09703 6.36494 8.22394 6.10805L10.1481 2.20888Z" stroke="black" stroke-width="1.66667" stroke-linecap="round" stroke-linejoin="round"/>
</svg>
