<svg width="17" height="17" viewBox="0 0 17 17" fill="none" xmlns="http://www.w3.org/2000/svg">
<g clip-path="url(#clip0_2003_201)">
<path d="M8.54712 1.82648C8.57634 1.76745 8.62147 1.71777 8.67742 1.68303C8.73338 1.64829 8.79793 1.62988 8.86379 1.62988C8.92965 1.62988 8.9942 1.64829 9.05015 1.68303C9.10611 1.71777 9.15124 1.76745 9.18046 1.82648L10.7205 4.94581C10.8219 5.15112 10.9717 5.32875 11.1569 5.46345C11.3421 5.59814 11.5572 5.68589 11.7838 5.71915L15.2278 6.22315C15.293 6.2326 15.3544 6.26013 15.4048 6.30261C15.4552 6.3451 15.4927 6.40084 15.5131 6.46355C15.5335 6.52626 15.536 6.59342 15.5202 6.65744C15.5044 6.72146 15.471 6.77978 15.4238 6.82581L12.9331 9.25115C12.7689 9.41121 12.646 9.6088 12.575 9.8269C12.5041 10.045 12.4872 10.2771 12.5258 10.5031L13.1138 13.9298C13.1253 13.995 13.1183 14.0622 13.0935 14.1236C13.0686 14.185 13.0271 14.2382 12.9735 14.2771C12.9199 14.3161 12.8564 14.3391 12.7904 14.3437C12.7243 14.3483 12.6583 14.3343 12.5998 14.3031L9.52112 12.6845C9.31827 12.578 9.09258 12.5223 8.86346 12.5223C8.63434 12.5223 8.40864 12.578 8.20579 12.6845L5.12779 14.3031C5.06934 14.3341 5.00339 14.348 4.93742 14.3433C4.87146 14.3386 4.80813 14.3155 4.75465 14.2766C4.70117 14.2377 4.65968 14.1846 4.63489 14.1233C4.61011 14.062 4.60303 13.9949 4.61446 13.9298L5.20179 10.5038C5.24059 10.2776 5.22378 10.0454 5.15281 9.82718C5.08185 9.60894 4.95886 9.41125 4.79446 9.25115L2.30379 6.82648C2.25619 6.7805 2.22245 6.72208 2.20643 6.65786C2.19041 6.59365 2.19275 6.52622 2.21318 6.46327C2.2336 6.40032 2.2713 6.34437 2.32197 6.3018C2.37265 6.25923 2.43426 6.23174 2.49979 6.22248L5.94312 5.71915C6.16996 5.68614 6.38538 5.59852 6.57085 5.4638C6.75631 5.32909 6.90626 5.15133 7.00779 4.94581L8.54712 1.82648Z" stroke="black" stroke-width="1.33333" stroke-linecap="round" stroke-linejoin="round"/>
</g>
<defs>
<clipPath id="clip0_2003_201">
<rect width="16" height="16" fill="white" transform="translate(0.86377 0.296387)"/>
</clipPath>
</defs>
</svg>
