<svg width="17" height="17" viewBox="0 0 17 17" fill="none" xmlns="http://www.w3.org/2000/svg">
<g clip-path="url(#clip0_2003_246)">
<path d="M8.2273 1.82648C8.25651 1.76745 8.30165 1.71777 8.3576 1.68303C8.41355 1.64829 8.4781 1.62988 8.54397 1.62988C8.60983 1.62988 8.67438 1.64829 8.73033 1.68303C8.78628 1.71777 8.83142 1.76745 8.86063 1.82648L10.4006 4.94581C10.5021 5.15112 10.6518 5.32875 10.837 5.46345C11.0223 5.59814 11.2374 5.68589 11.464 5.71915L14.908 6.22315C14.9732 6.2326 15.0345 6.26013 15.085 6.30261C15.1354 6.3451 15.1729 6.40084 15.1933 6.46355C15.2137 6.52626 15.2161 6.59342 15.2004 6.65744C15.1846 6.72146 15.1512 6.77978 15.104 6.82581L12.6133 9.25115C12.449 9.41121 12.3261 9.6088 12.2552 9.8269C12.1842 10.045 12.1673 10.2771 12.206 10.5031L12.794 13.9298C12.8055 13.995 12.7984 14.0622 12.7736 14.1236C12.7488 14.185 12.7073 14.2382 12.6537 14.2771C12.6001 14.3161 12.5366 14.3391 12.4705 14.3437C12.4045 14.3483 12.3384 14.3343 12.28 14.3031L9.2013 12.6845C8.99844 12.578 8.77275 12.5223 8.54363 12.5223C8.31451 12.5223 8.08882 12.578 7.88596 12.6845L4.80797 14.3031C4.74952 14.3341 4.68356 14.348 4.6176 14.3433C4.55164 14.3386 4.48831 14.3155 4.43483 14.2766C4.38135 14.2377 4.33985 14.1846 4.31507 14.1233C4.29028 14.062 4.2832 13.9949 4.29463 13.9298L4.88197 10.5038C4.92076 10.2776 4.90395 10.0454 4.83299 9.82718C4.76203 9.60894 4.63904 9.41125 4.47463 9.25115L1.98397 6.82648C1.93636 6.7805 1.90263 6.72208 1.88661 6.65786C1.87059 6.59365 1.87292 6.52622 1.89335 6.46327C1.91378 6.40032 1.95148 6.34437 2.00215 6.3018C2.05282 6.25923 2.11443 6.23174 2.17997 6.22248L5.6233 5.71915C5.85014 5.68614 6.06556 5.59852 6.25102 5.4638C6.43648 5.32909 6.58643 5.15133 6.68796 4.94581L8.2273 1.82648Z" stroke="black" stroke-width="1.33333" stroke-linecap="round" stroke-linejoin="round"/>
</g>
<defs>
<clipPath id="clip0_2003_246">
<rect width="16" height="16" fill="white" transform="translate(0.543945 0.296387)"/>
</clipPath>
</defs>
</svg>
