<svg width="20" height="20" viewBox="0 0 20 20" fill="none" xmlns="http://www.w3.org/2000/svg">
<path d="M9.60428 1.91274C9.6408 1.83895 9.69722 1.77685 9.76716 1.73342C9.8371 1.69 9.91779 1.66699 10.0001 1.66699C10.0824 1.66699 10.1631 1.69 10.2331 1.73342C10.303 1.77685 10.3594 1.83895 10.396 1.91274L12.3209 5.8119C12.4478 6.06854 12.635 6.29058 12.8665 6.45895C13.098 6.62732 13.3669 6.737 13.6501 6.77857L17.9551 7.40857C18.0367 7.42039 18.1133 7.4548 18.1764 7.5079C18.2394 7.56101 18.2863 7.63069 18.3118 7.70908C18.3373 7.78746 18.3403 7.87141 18.3206 7.95143C18.3009 8.03146 18.2591 8.10436 18.2001 8.1619L15.0868 11.1936C14.8815 11.3937 14.7278 11.6406 14.6391 11.9133C14.5504 12.1859 14.5293 12.476 14.5776 12.7586L15.3126 17.0419C15.327 17.1234 15.3182 17.2074 15.2872 17.2841C15.2562 17.3609 15.2042 17.4274 15.1372 17.4761C15.0702 17.5247 14.9909 17.5536 14.9083 17.5593C14.8257 17.5651 14.7432 17.5475 14.6701 17.5086L10.8218 15.4852C10.5682 15.3521 10.2861 15.2825 9.9997 15.2825C9.7133 15.2825 9.43119 15.3521 9.17762 15.4852L5.33012 17.5086C5.25706 17.5472 5.17461 17.5646 5.09216 17.5588C5.0097 17.5529 4.93055 17.524 4.8637 17.4754C4.79684 17.4268 4.74498 17.3604 4.714 17.2838C4.68302 17.2071 4.67416 17.1233 4.68845 17.0419L5.42262 12.7594C5.47111 12.4767 5.4501 12.1864 5.3614 11.9136C5.27269 11.6408 5.11896 11.3937 4.91345 11.1936L1.80012 8.16274C1.74061 8.10526 1.69844 8.03223 1.67842 7.95197C1.65839 7.8717 1.66131 7.78742 1.68685 7.70873C1.71238 7.63004 1.75951 7.5601 1.82285 7.50689C1.88619 7.45367 1.9632 7.41932 2.04512 7.40774L6.34928 6.77857C6.63283 6.73732 6.90211 6.62778 7.13394 6.45939C7.36577 6.291 7.5532 6.0688 7.68012 5.8119L9.60428 1.91274Z" stroke="black" stroke-width="1.66667" stroke-linecap="round" stroke-linejoin="round"/>
</svg>
