<svg width="17" height="17" viewBox="0 0 17 17" fill="none" xmlns="http://www.w3.org/2000/svg">
<g clip-path="url(#clip0_2003_30)">
<path d="M8.32865 14.9631C12.0106 14.9631 14.9953 11.9784 14.9953 8.29646C14.9953 4.61456 12.0106 1.62979 8.32865 1.62979C4.64676 1.62979 1.66199 4.61456 1.66199 8.29646C1.66199 11.9784 4.64676 14.9631 8.32865 14.9631Z" stroke="black" stroke-width="1.33333" stroke-linecap="round" stroke-linejoin="round"/>
<path d="M8.32865 1.62979C6.61681 3.42723 5.66199 5.81428 5.66199 8.29646C5.66199 10.7786 6.61681 13.1657 8.32865 14.9631C10.0405 13.1657 10.9953 10.7786 10.9953 8.29646C10.9953 5.81428 10.0405 3.42723 8.32865 1.62979Z" stroke="black" stroke-width="1.33333" stroke-linecap="round" stroke-linejoin="round"/>
<path d="M1.66199 8.29645H14.9953" stroke="black" stroke-width="1.33333" stroke-linecap="round" stroke-linejoin="round"/>
</g>
<defs>
<clipPath id="clip0_2003_30">
<rect width="16" height="16" fill="white" transform="translate(0.328613 0.296448)"/>
</clipPath>
</defs>
</svg>
