<svg width="17" height="16" viewBox="0 0 17 16" fill="none" xmlns="http://www.w3.org/2000/svg">
<path d="M10.9801 13.8477V12.5482C10.9801 11.8589 10.7062 11.1978 10.2186 10.7104C9.73101 10.223 9.06969 9.94922 8.38013 9.94922H4.48013C3.79056 9.94922 3.12924 10.223 2.64165 10.7104C2.15405 11.1978 1.88013 11.8589 1.88013 12.5482V13.8477" stroke="black" stroke-width="1.29948" stroke-linecap="round" stroke-linejoin="round"/>
<path d="M6.43008 7.35028C7.86602 7.35028 9.03008 6.18668 9.03008 4.75131C9.03008 3.31594 7.86602 2.15234 6.43008 2.15234C4.99414 2.15234 3.83008 3.31594 3.83008 4.75131C3.83008 6.18668 4.99414 7.35028 6.43008 7.35028Z" stroke="black" stroke-width="1.29948" stroke-linecap="round" stroke-linejoin="round"/>
<path d="M14.8794 13.8477V12.5482C14.879 11.9723 14.6873 11.4129 14.3345 10.9578C13.9817 10.5027 13.4877 10.1777 12.9302 10.0337" stroke="black" stroke-width="1.29948" stroke-linecap="round" stroke-linejoin="round"/>
<path d="M10.98 2.23682C11.539 2.37996 12.0345 2.70509 12.3884 3.16095C12.7422 3.61682 12.9343 4.17748 12.9343 4.75457C12.9343 5.33165 12.7422 5.89231 12.3884 6.34818C12.0345 6.80404 11.539 7.12918 10.98 7.27231" stroke="black" stroke-width="1.29948" stroke-linecap="round" stroke-linejoin="round"/>
</svg>
