<svg width="17" height="17" viewBox="0 0 17 17" fill="none" xmlns="http://www.w3.org/2000/svg">
<path d="M11.1442 14.2964V12.9631C11.1442 12.2558 10.8632 11.5775 10.3631 11.0774C9.86304 10.5773 9.18476 10.2964 8.47752 10.2964H4.47752C3.77027 10.2964 3.092 10.5773 2.5919 11.0774C2.0918 11.5775 1.81085 12.2558 1.81085 12.9631V14.2964" stroke="black" stroke-width="1.33333" stroke-linecap="round" stroke-linejoin="round"/>
<path d="M6.47752 7.62972C7.95028 7.62972 9.14419 6.43581 9.14419 4.96305C9.14419 3.49029 7.95028 2.29639 6.47752 2.29639C5.00476 2.29639 3.81085 3.49029 3.81085 4.96305C3.81085 6.43581 5.00476 7.62972 6.47752 7.62972Z" stroke="black" stroke-width="1.33333" stroke-linecap="round" stroke-linejoin="round"/>
<path d="M15.1442 14.2964V12.9631C15.1438 12.3722 14.9471 11.7982 14.5851 11.3313C14.2231 10.8643 13.7163 10.5308 13.1442 10.3831" stroke="black" stroke-width="1.33333" stroke-linecap="round" stroke-linejoin="round"/>
<path d="M11.1442 2.38306C11.7178 2.52992 12.2263 2.86352 12.5893 3.33126C12.9524 3.799 13.1495 4.37428 13.1495 4.96639C13.1495 5.5585 12.9524 6.13378 12.5893 6.60152C12.2263 7.06926 11.7178 7.40286 11.1442 7.54972" stroke="black" stroke-width="1.33333" stroke-linecap="round" stroke-linejoin="round"/>
</svg>
