<svg width="21" height="21" viewBox="0 0 21 21" fill="none" xmlns="http://www.w3.org/2000/svg">
<g clip-path="url(#clip0_2003_88)">
<path d="M10.4679 2.20888C10.5044 2.1351 10.5609 2.07299 10.6308 2.02957C10.7008 1.98614 10.7814 1.96313 10.8638 1.96313C10.9461 1.96313 11.0268 1.98614 11.0967 2.02957C11.1667 2.07299 11.2231 2.1351 11.2596 2.20888L13.1846 6.10805C13.3114 6.36469 13.4986 6.58672 13.7301 6.75509C13.9616 6.92346 14.2305 7.03314 14.5138 7.07471L18.8188 7.70471C18.9003 7.71653 18.977 7.75094 19.04 7.80405C19.103 7.85715 19.15 7.92684 19.1754 8.00522C19.2009 8.0836 19.204 8.16755 19.1843 8.24758C19.1645 8.3276 19.1228 8.40051 19.0638 8.45805L15.9504 11.4897C15.7451 11.6898 15.5915 11.9368 15.5028 12.2094C15.4141 12.482 15.393 12.7721 15.4413 13.0547L16.1763 17.338C16.1907 17.4196 16.1819 17.5035 16.1508 17.5803C16.1198 17.657 16.0679 17.7236 16.0009 17.7722C15.9339 17.8209 15.8546 17.8497 15.772 17.8555C15.6894 17.8612 15.6068 17.8436 15.5338 17.8047L11.6854 15.7814C11.4319 15.6482 11.1497 15.5787 10.8633 15.5787C10.5769 15.5787 10.2948 15.6482 10.0413 15.7814L6.19376 17.8047C6.12071 17.8434 6.03826 17.8608 5.95581 17.8549C5.87335 17.8491 5.7942 17.8202 5.72734 17.7716C5.66049 17.7229 5.60862 17.6565 5.57764 17.5799C5.54666 17.5033 5.53781 17.4195 5.5521 17.338L6.28626 13.0555C6.33476 12.7728 6.31375 12.4825 6.22505 12.2098C6.13634 11.937 5.9826 11.6898 5.7771 11.4897L2.66376 8.45888C2.60426 8.40141 2.56209 8.32838 2.54207 8.24811C2.52204 8.16784 2.52496 8.08356 2.5505 8.00487C2.57603 7.92618 2.62315 7.85625 2.68649 7.80303C2.74984 7.74982 2.82685 7.71546 2.90876 7.70388L7.21293 7.07471C7.49648 7.03346 7.76575 6.92393 7.99758 6.75554C8.22941 6.58714 8.41685 6.36494 8.54376 6.10805L10.4679 2.20888Z" stroke="black" stroke-width="1.66667" stroke-linecap="round" stroke-linejoin="round"/>
</g>
<defs>
<clipPath id="clip0_2003_88">
<rect width="20" height="20" fill="white" transform="translate(0.86377 0.296387)"/>
</clipPath>
</defs>
</svg>
