<svg width="21" height="20" viewBox="0 0 21 20" fill="none" xmlns="http://www.w3.org/2000/svg">
<path d="M18.8178 14.0999V16.5999C18.8188 16.832 18.7712 17.0617 18.6782 17.2744C18.5853 17.487 18.4489 17.6779 18.2779 17.8348C18.1069 17.9917 17.905 18.1112 17.6851 18.1855C17.4653 18.2599 17.2323 18.2875 17.0011 18.2666C14.4368 17.988 11.9736 17.1117 9.80948 15.7083C7.79601 14.4288 6.08893 12.7217 4.80948 10.7083C3.40113 8.53426 2.52468 6.05908 2.25115 3.48325C2.23032 3.25281 2.25771 3.02055 2.33157 2.80127C2.40542 2.58199 2.52412 2.38049 2.68012 2.2096C2.83612 2.03871 3.02599 1.90218 3.23764 1.80869C3.4493 1.7152 3.6781 1.6668 3.90948 1.66658H6.40948C6.8139 1.6626 7.20598 1.80582 7.51262 2.06953C7.81926 2.33324 8.01955 2.69946 8.07615 3.09992C8.18167 3.89997 8.37736 4.68552 8.65948 5.44158C8.7716 5.73985 8.79587 6.06401 8.7294 6.37565C8.66294 6.68729 8.50853 6.97334 8.28448 7.19992L7.22615 8.25825C8.41245 10.3445 10.1399 12.072 12.2261 13.2583L13.2845 12.1999C13.5111 11.9759 13.7971 11.8215 14.1087 11.755C14.4204 11.6885 14.7445 11.7128 15.0428 11.8249C15.7989 12.107 16.5844 12.3027 17.3845 12.4083C17.7893 12.4654 18.159 12.6693 18.4233 12.9812C18.6875 13.2931 18.828 13.6912 18.8178 14.0999Z" stroke="black" stroke-width="1.66667" stroke-linecap="round" stroke-linejoin="round"/>
</svg>
