<svg width="49" height="48" viewBox="0 0 49 48" fill="none" xmlns="http://www.w3.org/2000/svg">
<path d="M32.5 42V38C32.5 35.8783 31.6571 33.8434 30.1569 32.3431C28.6566 30.8429 26.6217 30 24.5 30H12.5C10.3783 30 8.34344 30.8429 6.84315 32.3431C5.34285 33.8434 4.5 35.8783 4.5 38V42" stroke="black" stroke-width="4" stroke-linecap="round" stroke-linejoin="round"/>
<path d="M18.5 22C22.9183 22 26.5 18.4183 26.5 14C26.5 9.58172 22.9183 6 18.5 6C14.0817 6 10.5 9.58172 10.5 14C10.5 18.4183 14.0817 22 18.5 22Z" stroke="black" stroke-width="4" stroke-linecap="round" stroke-linejoin="round"/>
<path d="M44.5 42V38C44.4987 36.2275 43.9087 34.5056 42.8227 33.1046C41.7368 31.7037 40.2163 30.7031 38.5 30.26" stroke="black" stroke-width="4" stroke-linecap="round" stroke-linejoin="round"/>
<path d="M32.5 6.26001C34.2208 6.70061 35.7461 7.70141 36.8353 9.10463C37.9245 10.5078 38.5157 12.2337 38.5157 14.01C38.5157 15.7864 37.9245 17.5122 36.8353 18.9154C35.7461 20.3186 34.2208 21.3194 32.5 21.76" stroke="black" stroke-width="4" stroke-linecap="round" stroke-linejoin="round"/>
</svg>
