<svg width="21" height="21" viewBox="0 0 21 21" fill="none" xmlns="http://www.w3.org/2000/svg">
<path d="M9.80771 2.20888C9.84422 2.1351 9.90064 2.07299 9.97058 2.02957C10.0405 1.98614 10.1212 1.96313 10.2035 1.96313C10.2859 1.96313 10.3666 1.98614 10.4365 2.02957C10.5064 2.07299 10.5629 2.1351 10.5994 2.20888L12.5244 6.10805C12.6512 6.36469 12.8384 6.58672 13.0699 6.75509C13.3014 6.92346 13.5703 7.03314 13.8535 7.07471L18.1585 7.70471C18.2401 7.71653 18.3167 7.75094 18.3798 7.80405C18.4428 7.85715 18.4897 7.92684 18.5152 8.00522C18.5407 8.0836 18.5438 8.16755 18.524 8.24758C18.5043 8.3276 18.4626 8.40051 18.4035 8.45805L15.2902 11.4897C15.0849 11.6898 14.9313 11.9368 14.8426 12.2094C14.7539 12.482 14.7328 12.7721 14.781 13.0547L15.516 17.338C15.5304 17.4196 15.5216 17.5035 15.4906 17.5803C15.4596 17.657 15.4076 17.7236 15.3407 17.7722C15.2737 17.8209 15.1944 17.8497 15.1118 17.8555C15.0292 17.8612 14.9466 17.8436 14.8735 17.8047L11.0252 15.7814C10.7716 15.6482 10.4895 15.5787 10.2031 15.5787C9.91672 15.5787 9.63461 15.6482 9.38104 15.7814L5.53354 17.8047C5.46048 17.8434 5.37804 17.8608 5.29558 17.8549C5.21313 17.8491 5.13397 17.8202 5.06712 17.7716C5.00027 17.7229 4.9484 17.6565 4.91742 17.5799C4.88644 17.5033 4.87759 17.4195 4.89187 17.338L5.62604 13.0555C5.67454 12.7728 5.65353 12.4825 5.56482 12.2098C5.47612 11.937 5.32238 11.6898 5.11687 11.4897L2.00354 8.45888C1.94403 8.40141 1.90187 8.32838 1.88184 8.24811C1.86182 8.16784 1.86474 8.08356 1.89027 8.00487C1.91581 7.92618 1.96293 7.85625 2.02627 7.80303C2.08961 7.74982 2.16663 7.71546 2.24854 7.70388L6.55271 7.07471C6.83625 7.03346 7.10553 6.92393 7.33736 6.75554C7.56919 6.58714 7.75663 6.36494 7.88354 6.10805L9.80771 2.20888Z" stroke="black" stroke-width="1.66667" stroke-linecap="round" stroke-linejoin="round"/>
</svg>
