<svg width="17" height="17" viewBox="0 0 17 17" fill="none" xmlns="http://www.w3.org/2000/svg">
<g clip-path="url(#clip0_2003_174)">
<path d="M11.472 14.2964V12.9631C11.472 12.2558 11.191 11.5775 10.6909 11.0774C10.1908 10.5773 9.51255 10.2964 8.80531 10.2964H4.80531C4.09806 10.2964 3.41979 10.5773 2.91969 11.0774C2.41959 11.5775 2.13864 12.2558 2.13864 12.9631V14.2964" stroke="black" stroke-width="1.33333" stroke-linecap="round" stroke-linejoin="round"/>
<path d="M6.80531 7.62972C8.27807 7.62972 9.47197 6.43581 9.47197 4.96305C9.47197 3.49029 8.27807 2.29639 6.80531 2.29639C5.33255 2.29639 4.13864 3.49029 4.13864 4.96305C4.13864 6.43581 5.33255 7.62972 6.80531 7.62972Z" stroke="black" stroke-width="1.33333" stroke-linecap="round" stroke-linejoin="round"/>
<path d="M15.472 14.2964V12.9631C15.4715 12.3722 15.2749 11.7982 14.9129 11.3313C14.5509 10.8643 14.044 10.5308 13.472 10.3831" stroke="black" stroke-width="1.33333" stroke-linecap="round" stroke-linejoin="round"/>
<path d="M11.472 2.38306C12.0456 2.52992 12.554 2.86352 12.917 3.33126C13.2801 3.799 13.4772 4.37428 13.4772 4.96639C13.4772 5.5585 13.2801 6.13378 12.917 6.60152C12.554 7.06926 12.0456 7.40286 11.472 7.54972" stroke="black" stroke-width="1.33333" stroke-linecap="round" stroke-linejoin="round"/>
</g>
<defs>
<clipPath id="clip0_2003_174">
<rect width="16" height="16" fill="white" transform="translate(0.805298 0.296387)"/>
</clipPath>
</defs>
</svg>
